<svg width="80" height="80" viewBox="0 0 100 100" fill="none" xmlns="http://www.w3.org/2000/svg">
  <rect width="100" height="100" fill="white" style="fill: transparent;"/>

  <path d="M50 0C22.3858 0 0 22.3858 0 50C0 77.6142 22.3858 100 50 100C67.4361 100 82.5218 90.1517 91.3397 75.8078L75.8078 91.3397C65.5786 96.6433 53.6828 100 40 100C17.9086 100 0 82.0914 0 60C0 42.1741 11.237 27.2023 26.6667 25.3087V74.6913C34.4214 72.7977 40 64.6631 40 55C40 45.3369 34.4214 37.2023 26.6667 35.3087V25.3087C11.237 27.2023 0 42.1741 0 60C0 82.0914 17.9086 100 40 100H60C82.0914 100 100 82.0914 100 60C100 37.9086 82.0914 20 60 20H40C27.8188 20 17.3015 25.867 10.4308 34.7214L24.1922 89.5692C32.5218 90.1517 41.282 95 50 95C74.8528 95 95 74.8528 95 50C95 25.1472 74.8528 5 50 5C32.5639 5 17.4782 14.8483 8.66025 29.1922L24.1922 10.4308C34.4214 5.35671 46.3172 0 59.9999 0C82.0913 0 99.9999 17.9086 99.9999 40C99.9999 57.8259 88.7629 72.7977 73.3333 74.6913V25.3087C65.5786 27.2023 59.9999 35.3369 59.9999 45C59.9999 54.6631 65.5786 62.7977 73.3333 64.6913V74.6913C88.7629 72.7977 99.9999 57.8259 99.9999 40C99.9999 17.9086 82.0913 0 59.9999 0H50Z" fill="#365A5A"/>

  <text x="50%" y="55%" dominant-baseline="middle" text-anchor="middle" font-family="Arial, sans-serif" font-size="40" font-weight="bold" fill="#FFFFFF">CA</text>
</svg>